<svg width="28" height="26" viewBox="0 0 28 26" fill="none" xmlns="http://www.w3.org/2000/svg">
<path d="M26 11.625V21.25C26 22.7688 24.7688 24 23.25 24H4C2.48122 24 1.25 22.7688 1.25 21.25V8.875C1.25 7.35622 2.48122 6.125 4 6.125H6.0625C6.92808 6.125 7.74315 5.71746 8.2625 5.025L9.70625 3.1C10.2256 2.40754 11.0407 2 11.9062 2H15.3437" stroke="#855BD9" stroke-width="2.5" stroke-linecap="round" stroke-linejoin="round"/>
<path d="M22.5625 2V5.4375M22.5625 5.4375V8.875M22.5625 5.4375H19.125M22.5625 5.4375H26" stroke="#855BD9" stroke-width="2.5" stroke-linecap="round" stroke-linejoin="round"/>
<path d="M13.625 19.875C16.6626 19.875 19.125 17.4126 19.125 14.375C19.125 11.3374 16.6626 8.875 13.625 8.875C10.5874 8.875 8.125 11.3374 8.125 14.375C8.125 17.4126 10.5874 19.875 13.625 19.875Z" stroke="#855BD9" stroke-width="2.5" stroke-linecap="round" stroke-linejoin="round"/>
</svg>
