<svg width="26" height="25" viewBox="0 0 26 25" fill="none" xmlns="http://www.w3.org/2000/svg">
<path d="M1.54175 22.9167C1.54175 22.3414 2.00812 21.875 2.58341 21.875H23.4167C23.9921 21.875 24.4584 22.3414 24.4584 22.9167C24.4584 23.492 23.9921 23.9583 23.4167 23.9583H2.58341C2.00812 23.9583 1.54175 23.492 1.54175 22.9167Z" fill="white"/>
<path fill-rule="evenodd" clip-rule="evenodd" d="M19.5683 1.95696C18.3479 0.736567 16.3693 0.736567 15.1489 1.95696L4.03017 13.0756C3.60992 13.4959 3.31822 14.0273 3.18929 14.6075L2.63432 17.1048C2.30353 18.5933 3.63145 19.9212 5.11998 19.5905L7.61733 19.0355C8.19751 18.9066 8.72889 18.6149 9.14914 18.1947L20.2678 7.07592C21.4883 5.85554 21.4883 3.8769 20.2678 2.65651L19.5683 1.95696ZM16.622 3.43009C17.0288 3.0233 17.6884 3.0233 18.0951 3.43009L18.7947 4.12965C19.2015 4.53644 19.2015 5.196 18.7947 5.60279L16.793 7.60443L14.6203 5.43175L16.622 3.43009ZM13.1472 6.90488L5.5033 14.5489C5.36322 14.6889 5.26599 14.866 5.22301 15.0594L4.66804 17.5568L7.1654 17.0018C7.35879 16.9588 7.53592 16.8616 7.676 16.7215L15.3199 9.07758L13.1472 6.90488Z" fill="white"/>
</svg>
