<svg width="24" height="22" viewBox="0 0 24 22" fill="none" xmlns="http://www.w3.org/2000/svg">
<path d="M11.4217 11.0033H3.46059M3.23493 12.038L1.91964 15.9334C1.19926 18.0668 0.839075 19.1335 1.09756 19.7904C1.32203 20.3609 1.80414 20.7933 2.39904 20.958C3.08409 21.1475 4.11877 20.6859 6.18813 19.7627L19.4547 13.8438C21.4746 12.9426 22.4845 12.4921 22.7966 11.8661C23.0678 11.3223 23.0678 10.6842 22.7966 10.1404C22.4845 9.51453 21.4746 9.06391 19.4547 8.16274L6.16525 2.23368C4.10212 1.31323 3.07057 0.852991 2.3862 1.04179C1.79186 1.20575 1.3098 1.63709 1.08455 2.20651C0.825173 2.86217 1.18151 3.92659 1.8942 6.05542L3.23748 10.0679C3.35988 10.4335 3.42109 10.6164 3.44525 10.8033C3.46669 10.9693 3.46646 11.1372 3.4446 11.3031C3.41995 11.49 3.35828 11.6726 3.23493 12.038Z" stroke="#5F6E78" stroke-width="1.5" stroke-linecap="round" stroke-linejoin="round"/>
</svg>
