<svg width="18" height="19" viewBox="0 0 18 19" fill="none" xmlns="http://www.w3.org/2000/svg">
<path fill-rule="evenodd" clip-rule="evenodd" d="M16.4372 1.38577C15.2562 0.204743 13.3414 0.204743 12.1603 1.38577L1.40025 12.1458C0.993553 12.5526 0.711263 13.0668 0.586495 13.6283L0.0494251 16.045C-0.270698 17.4856 1.01439 18.7707 2.45491 18.4506L4.87172 17.9135C5.43319 17.7887 5.94742 17.5064 6.35412 17.0998L17.1142 6.33964C18.2953 5.15861 18.2953 3.24379 17.1142 2.06276L16.4372 1.38577ZM13.586 2.81139C13.9796 2.41772 14.6179 2.41772 15.0116 2.81139L15.6886 3.48839C16.0822 3.88206 16.0822 4.52034 15.6886 4.91401L13.7515 6.8511L11.6489 4.74849L13.586 2.81139ZM10.2232 6.17411L2.82587 13.5715C2.69031 13.707 2.59621 13.8785 2.55462 14.0656L2.01755 16.4824L4.43436 15.9453C4.62152 15.9038 4.79293 15.8097 4.9285 15.6741L12.3259 8.27673L10.2232 6.17411Z" fill="#5F6E78"/>
</svg>
