<svg width="21" height="17" viewBox="0 0 21 17" fill="none" xmlns="http://www.w3.org/2000/svg">
<path d="M6.61368 7.13636C8.08226 7.13636 9.27277 5.76269 9.27277 4.06818C9.27277 2.37367 8.08226 1 6.61368 1C5.14511 1 3.95459 2.37367 3.95459 4.06818C3.95459 5.76269 5.14511 7.13636 6.61368 7.13636Z" stroke="#A28AEB" stroke-width="2"/>
<path d="M12.2273 15.9999C12.2273 15.1042 12.082 14.2172 11.7997 13.3897C11.5175 12.5622 11.1038 11.8104 10.5823 11.1772C10.0608 10.544 9.44174 10.0419 8.76046 9.69948C8.07918 9.3571 7.34905 9.18117 6.61179 9.18176C5.12345 9.18176 3.69607 9.90011 2.64366 11.1788C1.59124 12.4574 1 14.1917 1 15.9999H12.2273Z" stroke="#A28AEB" stroke-width="2"/>
<path d="M14.5909 8.50002C15.8963 8.50002 16.9546 7.43161 16.9546 6.11366C16.9546 4.79571 15.8963 3.72729 14.5909 3.72729C13.2855 3.72729 12.2273 4.79571 12.2273 6.11366C12.2273 7.43161 13.2855 8.50002 14.5909 8.50002Z" stroke="#A28AEB" stroke-width="2"/>
<path d="M14.2682 16H19.3181C19.3181 15.2825 19.2036 14.5722 18.981 13.9095C18.7584 13.2469 18.4323 12.645 18.0211 12.1383C17.61 11.6316 17.122 11.2301 16.5851 10.9568C16.0482 10.6835 15.4729 10.5437 14.8922 10.5454C14.169 10.5442 13.4566 10.7631 12.8181 11.1827" stroke="#A28AEB" stroke-width="2"/>
</svg>
