<svg width="21" height="21" viewBox="0 0 21 21" fill="none" xmlns="http://www.w3.org/2000/svg">
<path fill-rule="evenodd" clip-rule="evenodd" d="M9.325 19.5C8.84061 19.5 8.42738 19.1589 8.3485 18.6939C8.27585 18.3177 7.99747 18.0102 7.62301 17.8929C7.31789 17.7909 7.01955 17.6707 6.72973 17.5329C6.38485 17.3612 5.97113 17.3869 5.65144 17.5997C5.26457 17.8704 4.73311 17.8284 4.39608 17.5007L3.08523 16.2253C2.73244 15.882 2.6866 15.3408 2.97687 14.946C3.20073 14.6278 3.23297 14.2175 3.06144 13.8699C2.94842 13.6284 2.84873 13.3812 2.7628 13.1293C2.63972 12.7324 2.30001 12.4351 1.8814 12.3579C1.3766 12.2794 1.00393 11.8576 1.00001 11.3601V9.76457C0.997329 9.19127 1.42292 8.7009 2.0043 8.60743C2.44534 8.52579 2.81362 8.23187 2.98216 7.827C3.03237 7.713 3.08523 7.59985 3.14073 7.48757C3.36487 7.06771 3.33391 6.562 3.06011 6.171C2.71772 5.70799 2.77029 5.07183 3.18433 4.668L4.14766 3.73071C4.62277 3.26827 5.3721 3.20842 5.91837 3.58929L5.94876 3.60986C6.35666 3.87698 6.87572 3.92536 7.32833 3.73843C7.81254 3.56886 8.16946 3.16402 8.26786 2.67257L8.28114 2.62886C8.38984 1.97825 8.96733 1.50027 9.64485 1.5H10.8077C11.5034 1.49969 12.0972 1.9893 12.211 2.65714L12.2321 2.74714C12.3255 3.21793 12.6639 3.60757 13.1254 3.77571C13.5702 3.96146 14.0817 3.91295 14.4813 3.64714L14.5473 3.60086C15.1077 3.20787 15.8783 3.26831 16.3669 3.74357L17.2536 4.60757C17.698 5.04235 17.7538 5.72605 17.3857 6.22371C17.0973 6.63967 17.0606 7.17418 17.2892 7.62386L17.3461 7.75243C17.5313 8.1915 17.932 8.50971 18.4111 8.59843C19.0374 8.69781 19.498 9.22316 19.5 9.84043V11.2714C19.4999 11.8158 19.0952 12.2802 18.5433 12.3694C18.0894 12.4542 17.7197 12.7739 17.5799 13.2026C17.5183 13.374 17.4495 13.5455 17.3738 13.7169C17.1975 14.0936 17.2366 14.5325 17.4769 14.874C17.7939 15.3032 17.7447 15.8927 17.3606 16.2664L16.1304 17.4647C15.7786 17.807 15.2237 17.8511 14.8196 17.5689C14.4821 17.3445 14.045 17.3198 13.6831 17.5046C13.4252 17.6289 13.1605 17.7392 12.8903 17.835C12.5123 17.9619 12.2336 18.2766 12.1609 18.6591C12.0837 19.1404 11.6597 19.4964 11.1591 19.5H9.325Z" stroke="#A28AEB" stroke-width="2" stroke-linecap="round" stroke-linejoin="round"/>
<path fill-rule="evenodd" clip-rule="evenodd" d="M12.6999 10.5001C12.6999 11.9912 11.4911 13.2 9.99991 13.2C8.50871 13.2 7.29993 11.9912 7.29993 10.5001C7.29993 9.00887 8.50871 7.80005 9.99991 7.80005C11.4911 7.80005 12.6999 9.00887 12.6999 10.5001Z" stroke="#A28AEB" stroke-width="2" stroke-linecap="round" stroke-linejoin="round"/>
</svg>
