<svg width="124" height="35" viewBox="0 0 124 35" fill="none" xmlns="http://www.w3.org/2000/svg">
<rect x="0.5" width="123" height="35" rx="17.5" fill="#E02D2D"/>
<path d="M26.5 21.5L31.5 26.5M31.5 21.5L26.5 26.5M22.5 19.5C18.634 19.5 15.5 22.634 15.5 26.5H22.5M26.5 12.5C26.5 14.7091 24.7091 16.5 22.5 16.5C20.2909 16.5 18.5 14.7091 18.5 12.5C18.5 10.2909 20.2909 8.5 22.5 8.5C24.7091 8.5 26.5 10.2909 26.5 12.5Z" stroke="white" stroke-width="2" stroke-linecap="round" stroke-linejoin="round"/>
<path d="M43.6875 23.1591V21.3864H44.3523C44.6515 21.3864 44.8977 21.3428 45.0909 21.2557C45.2841 21.1686 45.4394 21.0436 45.5568 20.8807C45.678 20.7178 45.7784 20.5284 45.858 20.3125L46.0114 19.9205L41.8523 11.3636H44.0568L46.9545 17.5909L49.4602 11.3636H51.6307L47.6193 20.8523C47.4337 21.2614 47.2197 21.642 46.9773 21.9943C46.7348 22.3428 46.4186 22.625 46.0284 22.8409C45.642 23.053 45.1383 23.1591 44.517 23.1591H43.6875ZM52.2685 25.5341V21.3068H52.9616C53.1473 21.1629 53.3026 20.9678 53.4276 20.7216C53.5526 20.4716 53.6548 20.178 53.7344 19.8409C53.8177 19.5 53.8859 19.1193 53.9389 18.6989C53.992 18.2746 54.0393 17.8182 54.081 17.3295L54.331 14.2727H60.6378V21.3068H61.9901V25.5341H60.0014V23H54.2912V25.5341H52.2685ZM55.0753 21.3068H58.6719V15.9318H56.1151L55.9787 17.3295C55.9029 18.2538 55.8026 19.0455 55.6776 19.7045C55.5526 20.3636 55.3518 20.8977 55.0753 21.3068ZM66.0369 23.1761C65.4839 23.1761 64.9858 23.0777 64.5426 22.8807C64.1032 22.6799 63.7547 22.3845 63.4972 21.9943C63.2434 21.6042 63.1165 21.1231 63.1165 20.5511C63.1165 20.0587 63.2074 19.6515 63.3892 19.3295C63.571 19.0076 63.8191 18.75 64.1335 18.5568C64.4479 18.3636 64.8021 18.2178 65.196 18.1193C65.5938 18.017 66.0047 17.9432 66.429 17.8977C66.9403 17.8447 67.3551 17.7973 67.6733 17.7557C67.9915 17.7102 68.2225 17.642 68.3665 17.5511C68.5142 17.4564 68.5881 17.3106 68.5881 17.1136V17.0795C68.5881 16.6515 68.4612 16.3201 68.2074 16.0852C67.9536 15.8504 67.5881 15.733 67.1108 15.733C66.607 15.733 66.2074 15.8428 65.9119 16.0625C65.6203 16.2822 65.4233 16.5417 65.321 16.8409L63.4006 16.5682C63.5521 16.0379 63.8021 15.5947 64.1506 15.2386C64.4991 14.8788 64.9252 14.6098 65.429 14.4318C65.9328 14.25 66.4896 14.1591 67.0994 14.1591C67.5199 14.1591 67.9384 14.2083 68.3551 14.3068C68.7718 14.4053 69.1525 14.5682 69.4972 14.7955C69.8419 15.0189 70.1184 15.3239 70.3267 15.7102C70.5388 16.0966 70.6449 16.5795 70.6449 17.1591V23H68.6676V21.8011H68.5994C68.4744 22.0436 68.2983 22.2708 68.071 22.483C67.8475 22.6913 67.5653 22.8598 67.2244 22.9886C66.8873 23.1136 66.4915 23.1761 66.0369 23.1761ZM66.571 21.6648C66.9839 21.6648 67.3419 21.5833 67.6449 21.4205C67.9479 21.2538 68.1809 21.0341 68.3438 20.7614C68.5104 20.4886 68.5938 20.1913 68.5938 19.8693V18.8409C68.5294 18.8939 68.4195 18.9432 68.2642 18.9886C68.1127 19.0341 67.9422 19.0739 67.7528 19.108C67.5634 19.142 67.3759 19.1723 67.1903 19.1989C67.0047 19.2254 66.8438 19.2481 66.7074 19.267C66.4006 19.3087 66.1259 19.3769 65.8835 19.4716C65.6411 19.5663 65.4498 19.6989 65.3097 19.8693C65.1695 20.036 65.0994 20.2519 65.0994 20.517C65.0994 20.8958 65.2377 21.1818 65.5142 21.375C65.7907 21.5682 66.143 21.6648 66.571 21.6648ZM72.1108 23L72.0994 21.3068H72.4006C72.6278 21.3068 72.8191 21.2557 72.9744 21.1534C73.1297 21.0511 73.2585 20.8807 73.3608 20.642C73.4631 20.3996 73.5426 20.0739 73.5994 19.6648C73.6563 19.2557 73.696 18.7462 73.7188 18.1364L73.8722 14.2727H80.2358V23H78.2472V15.9602H75.7415L75.6051 18.7727C75.571 19.5 75.4896 20.1307 75.3608 20.6648C75.2358 21.1951 75.0578 21.6326 74.8267 21.9773C74.5994 22.322 74.3134 22.5795 73.9688 22.75C73.6241 22.9167 73.2169 23 72.7472 23H72.1108ZM84.2898 20.2159L87.7841 14.2727H89.8977V23H87.9091V17.0511L84.4261 23H82.3068V14.2727H84.2898V20.2159ZM91.0327 15.9602V14.2727H98.669V15.9602H95.8452V23H93.8565V15.9602H91.0327ZM101.699 17.1136H104.273C105.386 17.1136 106.248 17.3845 106.858 17.9261C107.468 18.4678 107.775 19.178 107.778 20.0568C107.775 20.6288 107.634 21.1364 107.358 21.5795C107.085 22.0227 106.688 22.3712 106.165 22.625C105.646 22.875 105.015 23 104.273 23H100.307V14.2727H102.29V21.3125H104.273C104.72 21.3125 105.087 21.1989 105.375 20.9716C105.663 20.7405 105.807 20.4451 105.807 20.0852C105.807 19.7064 105.663 19.3977 105.375 19.1591C105.087 18.9205 104.72 18.8011 104.273 18.8011H101.699V17.1136Z" fill="white"/>
</svg>
