<svg width="134" height="35" viewBox="0 0 134 35" fill="none" xmlns="http://www.w3.org/2000/svg">
<rect x="1" y="1" width="132" height="33" rx="16.5" stroke="#855BD9" stroke-width="2"/>
<path d="M25.9999 12.5C25.9999 14.7091 24.209 16.4999 21.9999 16.4999C19.7908 16.4999 17.9999 14.7091 17.9999 12.5C17.9999 10.2908 19.7908 8.5 21.9999 8.5C24.209 8.5 25.9999 10.2908 25.9999 12.5Z" stroke="#855BD9" stroke-width="2" stroke-linecap="round" stroke-linejoin="round"/>
<path d="M21.9999 19.5C18.134 19.5 15 22.634 15 26.4999H28.9999C28.9999 22.634 25.8659 19.5 21.9999 19.5Z" stroke="#855BD9" stroke-width="2" stroke-linecap="round" stroke-linejoin="round"/>
<path d="M40.1476 23V11.3636H44.6022C45.4431 11.3636 46.1419 11.4962 46.6987 11.7614C47.2593 12.0227 47.6779 12.3807 47.9544 12.8352C48.2347 13.2898 48.3749 13.8049 48.3749 14.3807C48.3749 14.8542 48.284 15.2595 48.1022 15.5966C47.9203 15.9299 47.676 16.2008 47.3692 16.4091C47.0624 16.6174 46.7196 16.767 46.3408 16.858V16.9716C46.7537 16.9943 47.1495 17.1212 47.5283 17.3523C47.9109 17.5795 48.2234 17.9015 48.4658 18.3182C48.7082 18.7348 48.8294 19.2386 48.8294 19.8295C48.8294 20.4318 48.6836 20.9735 48.3919 21.4545C48.1003 21.9318 47.6609 22.3087 47.0737 22.5852C46.4866 22.8617 45.748 23 44.8578 23H40.1476ZM42.2556 21.2386H44.5226C45.2878 21.2386 45.8389 21.0928 46.176 20.8011C46.5169 20.5057 46.6874 20.1269 46.6874 19.6648C46.6874 19.3201 46.6022 19.0095 46.4317 18.733C46.2612 18.4527 46.0188 18.233 45.7044 18.0739C45.39 17.911 45.015 17.8295 44.5794 17.8295H42.2556V21.2386ZM42.2556 16.3125H44.3408C44.7044 16.3125 45.0321 16.2462 45.3237 16.1136C45.6154 15.9773 45.8446 15.786 46.0112 15.5398C46.1817 15.2898 46.2669 14.9943 46.2669 14.6534C46.2669 14.2027 46.1078 13.8314 45.7897 13.5398C45.4753 13.2481 45.0075 13.1023 44.3862 13.1023H42.2556V16.3125ZM53.7683 25.5341V21.3068H54.4615C54.6471 21.1629 54.8024 20.9678 54.9274 20.7216C55.0524 20.4716 55.1547 20.178 55.2343 19.8409C55.3176 19.5 55.3858 19.1193 55.4388 18.6989C55.4918 18.2746 55.5392 17.8182 55.5808 17.3295L55.8308 14.2727H62.1377V21.3068H63.4899V25.5341H61.5013V23H55.7911V25.5341H53.7683ZM56.5752 21.3068H60.1718V15.9318H57.6149L57.4786 17.3295C57.4028 18.2538 57.3024 19.0455 57.1774 19.7045C57.0524 20.3636 56.8517 20.8977 56.5752 21.3068ZM65.0254 26.2727V14.2727H67.0482V15.7159H67.1675C67.2736 15.5038 67.4232 15.2784 67.6164 15.0398C67.8095 14.7973 68.0709 14.5909 68.4004 14.4205C68.73 14.2462 69.1504 14.1591 69.6618 14.1591C70.3361 14.1591 70.944 14.3314 71.4857 14.6761C72.0311 15.017 72.4629 15.5227 72.7811 16.1932C73.1031 16.8598 73.2641 17.678 73.2641 18.6477C73.2641 19.6061 73.1069 20.4205 72.7925 21.0909C72.4781 21.7614 72.0501 22.2727 71.5084 22.625C70.9667 22.9773 70.3531 23.1534 69.6675 23.1534C69.1675 23.1534 68.7527 23.0701 68.4232 22.9034C68.0936 22.7367 67.8285 22.536 67.6277 22.3011C67.4307 22.0625 67.2773 21.8371 67.1675 21.625H67.0823V26.2727H65.0254ZM67.0425 18.6364C67.0425 19.2008 67.122 19.6951 67.2811 20.1193C67.444 20.5436 67.677 20.875 67.98 21.1136C68.2868 21.3485 68.658 21.4659 69.0936 21.4659C69.5482 21.4659 69.9289 21.3447 70.2357 21.1023C70.5425 20.8561 70.7736 20.5208 70.9289 20.0966C71.0879 19.6686 71.1675 19.1818 71.1675 18.6364C71.1675 18.0947 71.0898 17.6136 70.9345 17.1932C70.7792 16.7727 70.5482 16.4432 70.2414 16.2045C69.9345 15.9659 69.552 15.8466 69.0936 15.8466C68.6542 15.8466 68.2811 15.9621 67.9743 16.1932C67.6675 16.4242 67.4345 16.7481 67.2754 17.1648C67.1201 17.5814 67.0425 18.072 67.0425 18.6364ZM76.007 26.2727C75.7267 26.2727 75.4672 26.25 75.2286 26.2045C74.9937 26.1629 74.8062 26.1136 74.6661 26.0568L75.1433 24.4545C75.4426 24.5417 75.7096 24.5833 75.9445 24.5795C76.1793 24.5758 76.3858 24.5019 76.5638 24.358C76.7456 24.2178 76.899 23.983 77.024 23.6534L77.2002 23.1818L74.0354 14.2727H76.2172L78.2286 20.8636H78.3195L80.3365 14.2727H82.524L79.0297 24.0568C78.8668 24.5189 78.6509 24.9148 78.382 25.2443C78.113 25.5777 77.7835 25.8314 77.3933 26.0057C77.007 26.1837 76.5449 26.2727 76.007 26.2727ZM83.4644 20.608H85.5041C85.5231 20.9337 85.6689 21.1856 85.9416 21.3636C86.2144 21.5417 86.5685 21.6307 87.0041 21.6307C87.4473 21.6307 87.8204 21.5341 88.1235 21.3409C88.4303 21.1439 88.5837 20.8466 88.5837 20.4489C88.5837 20.214 88.525 20.0076 88.4075 19.8295C88.2901 19.6477 88.1254 19.5076 87.9132 19.4091C87.7011 19.3106 87.4511 19.2614 87.1632 19.2614H85.828V17.8011H87.1632C87.5913 17.8011 87.9151 17.7027 88.1348 17.5057C88.3583 17.3087 88.47 17.0606 88.47 16.7614C88.47 16.4394 88.3526 16.178 88.1178 15.9773C87.8867 15.7765 87.5666 15.6761 87.1575 15.6761C86.7485 15.6761 86.4075 15.7689 86.1348 15.9545C85.8659 16.1402 85.7257 16.3788 85.7144 16.6705H83.686C83.6935 16.1629 83.845 15.7216 84.1405 15.3466C84.4397 14.9716 84.8413 14.6799 85.345 14.4716C85.8526 14.2633 86.4246 14.1591 87.061 14.1591C87.7428 14.1591 88.3318 14.2614 88.828 14.4659C89.3242 14.6705 89.7068 14.9564 89.9757 15.3239C90.2447 15.6875 90.3791 16.1155 90.3791 16.608C90.3791 17.0814 90.2314 17.4735 89.936 17.7841C89.6405 18.0909 89.2428 18.3106 88.7428 18.4432V18.5341C89.0875 18.553 89.3981 18.6515 89.6746 18.8295C89.9511 19.0038 90.1708 19.2405 90.3337 19.5398C90.4966 19.839 90.578 20.1856 90.578 20.5795C90.578 21.1136 90.4246 21.5758 90.1178 21.9659C89.811 22.3523 89.3886 22.6496 88.8507 22.858C88.3166 23.0663 87.7049 23.1705 87.0155 23.1705C86.345 23.1705 85.7447 23.0701 85.2144 22.8693C84.6879 22.6648 84.2693 22.3712 83.9587 21.9886C83.6481 21.6061 83.4833 21.1458 83.4644 20.608ZM93.5894 17.1136H96.1632C97.2769 17.1136 98.1386 17.3845 98.7485 17.9261C99.3583 18.4678 99.6651 19.178 99.6689 20.0568C99.6651 20.6288 99.525 21.1364 99.2485 21.5795C98.9757 22.0227 98.578 22.3712 98.0553 22.625C97.5363 22.875 96.9057 23 96.1632 23H92.1973V14.2727H94.1803V21.3125H96.1632C96.6102 21.3125 96.9776 21.1989 97.2655 20.9716C97.5534 20.7405 97.6973 20.4451 97.6973 20.0852C97.6973 19.7064 97.5534 19.3977 97.2655 19.1591C96.9776 18.9205 96.6102 18.8011 96.1632 18.8011H93.5894V17.1136ZM106.591 23V15.9432H104.727C104.254 15.9432 103.89 16.053 103.636 16.2727C103.382 16.4924 103.257 16.7652 103.261 17.0909C103.257 17.4167 103.377 17.6856 103.619 17.8977C103.862 18.1098 104.208 18.2159 104.659 18.2159H107.239V19.7159H104.659C103.962 19.7159 103.36 19.6061 102.852 19.3864C102.345 19.1667 101.954 18.8561 101.682 18.4545C101.409 18.053 101.273 17.5833 101.273 17.0455C101.273 16.4848 101.411 15.9981 101.687 15.5852C101.968 15.1686 102.365 14.8466 102.881 14.6193C103.399 14.3883 104.015 14.2727 104.727 14.2727H108.517V23H106.591ZM100.954 23L103.392 18.5227H105.42L102.977 23H100.954ZM112.27 14.2727L114.031 17.4943L115.821 14.2727H117.997L115.366 18.6364L118.042 23H115.878L114.031 19.858L112.202 23H110.02L112.679 18.6364L110.088 14.2727H112.27Z" fill="#855BD9"/>
</svg>
