<svg width="134" height="35" viewBox="0 0 134 35" fill="none" xmlns="http://www.w3.org/2000/svg">
<rect width="134" height="35" rx="17.5" fill="#855BD9"/>
<path d="M31 23.5H28M28 23.5H25M28 23.5V20.5M28 23.5V26.5M22 26.5H15C15 22.634 18.134 19.5 22 19.5C22.695 19.5 23.3663 19.6013 24 19.7899M26 12.5C26 14.7091 24.2091 16.5 22 16.5C19.7909 16.5 18 14.7091 18 12.5C18 10.2909 19.7909 8.5 22 8.5C24.2091 8.5 26 10.2909 26 12.5Z" stroke="white" stroke-width="2" stroke-linecap="round" stroke-linejoin="round"/>
<path d="M41.392 25.8068V21.2784H42.1705C42.4318 21.0701 42.6761 20.7765 42.9034 20.3977C43.1307 20.0189 43.3239 19.5 43.483 18.8409C43.642 18.1818 43.7519 17.3295 43.8125 16.2841L44.1193 11.3636H51.5568V21.2784H52.8523V25.7955H50.8295V23H43.4148V25.8068H41.392ZM44.625 21.2784H49.5341V13.1307H46.017L45.8352 16.2841C45.786 17.0758 45.7064 17.7841 45.5966 18.4091C45.4867 19.0341 45.3485 19.5852 45.1818 20.0625C45.0152 20.536 44.8295 20.9413 44.625 21.2784ZM58.2855 23.1705C57.4332 23.1705 56.6946 22.983 56.0696 22.608C55.4446 22.233 54.9598 21.7083 54.6151 21.0341C54.2741 20.3598 54.1037 19.572 54.1037 18.6705C54.1037 17.7689 54.2741 16.9792 54.6151 16.3011C54.9598 15.6231 55.4446 15.0966 56.0696 14.7216C56.6946 14.3466 57.4332 14.1591 58.2855 14.1591C59.1378 14.1591 59.8764 14.3466 60.5014 14.7216C61.1264 15.0966 61.6094 15.6231 61.9503 16.3011C62.295 16.9792 62.4673 17.7689 62.4673 18.6705C62.4673 19.572 62.295 20.3598 61.9503 21.0341C61.6094 21.7083 61.1264 22.233 60.5014 22.608C59.8764 22.983 59.1378 23.1705 58.2855 23.1705ZM58.2969 21.5227C58.759 21.5227 59.1454 21.3958 59.456 21.142C59.7666 20.8845 59.9976 20.5398 60.1491 20.108C60.3045 19.6761 60.3821 19.1951 60.3821 18.6648C60.3821 18.1307 60.3045 17.6477 60.1491 17.2159C59.9976 16.7803 59.7666 16.4337 59.456 16.1761C59.1454 15.9186 58.759 15.7898 58.2969 15.7898C57.8234 15.7898 57.4295 15.9186 57.1151 16.1761C56.8045 16.4337 56.5715 16.7803 56.4162 17.2159C56.2647 17.6477 56.1889 18.1307 56.1889 18.6648C56.1889 19.1951 56.2647 19.6761 56.4162 20.108C56.5715 20.5398 56.8045 20.8845 57.1151 21.142C57.4295 21.3958 57.8234 21.5227 58.2969 21.5227ZM71.2074 11.0455L71.9233 12.375C71.6695 12.5947 71.3854 12.7538 71.071 12.8523C70.7566 12.9508 70.3873 13.0152 69.9631 13.0455C69.5426 13.072 69.0426 13.0909 68.4631 13.1023C67.8116 13.1174 67.2794 13.2405 66.8665 13.4716C66.4536 13.7027 66.1373 14.053 65.9176 14.5227C65.6979 14.9886 65.554 15.5833 65.4858 16.3068H65.5824C65.8551 15.7727 66.2377 15.3655 66.7301 15.0852C67.2225 14.8049 67.8002 14.6648 68.4631 14.6648C69.1866 14.6648 69.8248 14.8277 70.3778 15.1534C70.9347 15.4754 71.3684 15.9432 71.679 16.5568C71.9934 17.1705 72.1506 17.9129 72.1506 18.7841C72.1506 19.6818 71.982 20.4602 71.6449 21.1193C71.3078 21.7746 70.8286 22.2803 70.2074 22.6364C69.59 22.9924 68.857 23.1705 68.0085 23.1705C67.1638 23.1705 66.429 22.9867 65.804 22.6193C65.1828 22.2481 64.7017 21.7008 64.3608 20.9773C64.0237 20.25 63.8551 19.3542 63.8551 18.2898V17.5057C63.8551 15.4527 64.2377 13.9205 65.0028 12.9091C65.768 11.8977 66.9025 11.3826 68.4062 11.3636C68.8532 11.3561 69.2528 11.3542 69.6051 11.358C69.9612 11.3617 70.2718 11.3447 70.5369 11.3068C70.8021 11.2689 71.0256 11.1818 71.2074 11.0455ZM68.0199 21.5227C68.4403 21.5227 68.804 21.4148 69.1108 21.1989C69.4176 20.9792 69.6525 20.6686 69.8153 20.267C69.982 19.8655 70.0653 19.3902 70.0653 18.8409C70.0653 18.2992 69.982 17.839 69.8153 17.4602C69.6487 17.0777 69.4119 16.786 69.1051 16.5852C68.7983 16.3845 68.4328 16.2841 68.0085 16.2841C67.6903 16.2841 67.4044 16.3409 67.1506 16.4545C66.8968 16.5682 66.6809 16.7348 66.5028 16.9545C66.3248 17.1742 66.1884 17.4413 66.0938 17.7557C65.9991 18.0701 65.9479 18.4318 65.9403 18.8409C65.9403 19.6629 66.1259 20.3163 66.4972 20.8011C66.8684 21.2822 67.3759 21.5227 68.0199 21.5227ZM76.4119 23.1761C75.8589 23.1761 75.3608 23.0777 74.9176 22.8807C74.4782 22.6799 74.1297 22.3845 73.8722 21.9943C73.6184 21.6042 73.4915 21.1231 73.4915 20.5511C73.4915 20.0587 73.5824 19.6515 73.7642 19.3295C73.946 19.0076 74.1941 18.75 74.5085 18.5568C74.8229 18.3636 75.1771 18.2178 75.571 18.1193C75.9688 18.017 76.3797 17.9432 76.804 17.8977C77.3153 17.8447 77.7301 17.7973 78.0483 17.7557C78.3665 17.7102 78.5975 17.642 78.7415 17.5511C78.8892 17.4564 78.9631 17.3106 78.9631 17.1136V17.0795C78.9631 16.6515 78.8362 16.3201 78.5824 16.0852C78.3286 15.8504 77.9631 15.733 77.4858 15.733C76.982 15.733 76.5824 15.8428 76.2869 16.0625C75.9953 16.2822 75.7983 16.5417 75.696 16.8409L73.7756 16.5682C73.9271 16.0379 74.1771 15.5947 74.5256 15.2386C74.8741 14.8788 75.3002 14.6098 75.804 14.4318C76.3078 14.25 76.8646 14.1591 77.4744 14.1591C77.8949 14.1591 78.3134 14.2083 78.7301 14.3068C79.1468 14.4053 79.5275 14.5682 79.8722 14.7955C80.2169 15.0189 80.4934 15.3239 80.7017 15.7102C80.9138 16.0966 81.0199 16.5795 81.0199 17.1591V23H79.0426V21.8011H78.9744C78.8494 22.0436 78.6733 22.2708 78.446 22.483C78.2225 22.6913 77.9403 22.8598 77.5994 22.9886C77.2623 23.1136 76.8665 23.1761 76.4119 23.1761ZM76.946 21.6648C77.3589 21.6648 77.7169 21.5833 78.0199 21.4205C78.3229 21.2538 78.5559 21.0341 78.7188 20.7614C78.8854 20.4886 78.9688 20.1913 78.9688 19.8693V18.8409C78.9044 18.8939 78.7945 18.9432 78.6392 18.9886C78.4877 19.0341 78.3172 19.0739 78.1278 19.108C77.9384 19.142 77.7509 19.1723 77.5653 19.1989C77.3797 19.2254 77.2188 19.2481 77.0824 19.267C76.7756 19.3087 76.5009 19.3769 76.2585 19.4716C76.0161 19.5663 75.8248 19.6989 75.6847 19.8693C75.5445 20.036 75.4744 20.2519 75.4744 20.517C75.4744 20.8958 75.6127 21.1818 75.8892 21.375C76.1657 21.5682 76.518 21.6648 76.946 21.6648ZM83.0881 23V14.2727H86.7528C87.7869 14.2727 88.6032 14.4792 89.2017 14.892C89.804 15.3049 90.1051 15.8807 90.1051 16.6193C90.1051 17.108 89.9347 17.5076 89.5938 17.8182C89.2566 18.125 88.7964 18.3314 88.2131 18.4375C88.6714 18.4754 89.0729 18.5909 89.4176 18.7841C89.7661 18.9773 90.0388 19.2311 90.2358 19.5455C90.4328 19.8598 90.5312 20.2216 90.5312 20.6307C90.5312 21.1117 90.4044 21.5303 90.1506 21.8864C89.9006 22.2386 89.535 22.5133 89.054 22.7102C88.5767 22.9034 87.9972 23 87.3153 23H83.0881ZM85.0142 21.3807H87.3153C87.6941 21.3807 87.9915 21.2917 88.2074 21.1136C88.4233 20.9318 88.5312 20.6856 88.5312 20.375C88.5312 20.0152 88.4233 19.733 88.2074 19.5284C87.9915 19.3201 87.6941 19.2159 87.3153 19.2159H85.0142V21.3807ZM85.0142 17.8864H86.7926C87.0729 17.8864 87.3134 17.8466 87.5142 17.767C87.715 17.6837 87.8684 17.5682 87.9744 17.4205C88.0805 17.2689 88.1335 17.089 88.1335 16.8807C88.1335 16.5814 88.0104 16.3466 87.7642 16.1761C87.5218 16.0057 87.1847 15.9205 86.7528 15.9205H85.0142V17.8864ZM94.2116 20.2159L97.706 14.2727H99.8196V23H97.831V17.0511L94.348 23H92.2287V14.2727H94.2116V20.2159ZM100.955 15.9602V14.2727H108.591V15.9602H105.767V23H103.778V15.9602H100.955ZM111.621 17.1136H114.195C115.308 17.1136 116.17 17.3845 116.78 17.9261C117.39 18.4678 117.696 19.178 117.7 20.0568C117.696 20.6288 117.556 21.1364 117.28 21.5795C117.007 22.0227 116.609 22.3712 116.087 22.625C115.568 22.875 114.937 23 114.195 23H110.229V14.2727H112.212V21.3125H114.195C114.642 21.3125 115.009 21.1989 115.297 20.9716C115.585 20.7405 115.729 20.4451 115.729 20.0852C115.729 19.7064 115.585 19.3977 115.297 19.1591C115.009 18.9205 114.642 18.8011 114.195 18.8011H111.621V17.1136Z" fill="white"/>
</svg>
