<svg width="154" height="35" viewBox="0 0 154 35" fill="none" xmlns="http://www.w3.org/2000/svg">
<rect x="1" y="1" width="152" height="33" rx="16.5" stroke="#855BD9" stroke-width="2"/>
<path d="M25.9999 12.5C25.9999 14.7091 24.209 16.4999 21.9999 16.4999C19.7908 16.4999 17.9999 14.7091 17.9999 12.5C17.9999 10.2908 19.7908 8.5 21.9999 8.5C24.209 8.5 25.9999 10.2908 25.9999 12.5Z" stroke="#855BD9" stroke-width="2" stroke-linecap="round" stroke-linejoin="round"/>
<path d="M21.9999 19.5C18.134 19.5 15 22.634 15 26.4999H28.9999C28.9999 22.634 25.8659 19.5 21.9999 19.5Z" stroke="#855BD9" stroke-width="2" stroke-linecap="round" stroke-linejoin="round"/>
<path d="M40.1476 23V11.3636H44.6022C45.4431 11.3636 46.1419 11.4962 46.6987 11.7614C47.2593 12.0227 47.6779 12.3807 47.9544 12.8352C48.2347 13.2898 48.3749 13.8049 48.3749 14.3807C48.3749 14.8542 48.284 15.2595 48.1022 15.5966C47.9203 15.9299 47.676 16.2008 47.3692 16.4091C47.0624 16.6174 46.7196 16.767 46.3408 16.858V16.9716C46.7537 16.9943 47.1495 17.1212 47.5283 17.3523C47.9109 17.5795 48.2234 17.9015 48.4658 18.3182C48.7082 18.7348 48.8294 19.2386 48.8294 19.8295C48.8294 20.4318 48.6836 20.9735 48.3919 21.4545C48.1003 21.9318 47.6609 22.3087 47.0737 22.5852C46.4866 22.8617 45.748 23 44.8578 23H40.1476ZM42.2556 21.2386H44.5226C45.2878 21.2386 45.8389 21.0928 46.176 20.8011C46.5169 20.5057 46.6874 20.1269 46.6874 19.6648C46.6874 19.3201 46.6022 19.0095 46.4317 18.733C46.2612 18.4527 46.0188 18.233 45.7044 18.0739C45.39 17.911 45.015 17.8295 44.5794 17.8295H42.2556V21.2386ZM42.2556 16.3125H44.3408C44.7044 16.3125 45.0321 16.2462 45.3237 16.1136C45.6154 15.9773 45.8446 15.786 46.0112 15.5398C46.1817 15.2898 46.2669 14.9943 46.2669 14.6534C46.2669 14.2027 46.1078 13.8314 45.7897 13.5398C45.4753 13.2481 45.0075 13.1023 44.3862 13.1023H42.2556V16.3125ZM54.5411 23V14.2727H61.9104V23H59.9274V15.9602H56.507V23H54.5411ZM67.8323 23.1705C66.98 23.1705 66.2414 22.983 65.6164 22.608C64.9914 22.233 64.5065 21.7083 64.1618 21.0341C63.8209 20.3598 63.6504 19.572 63.6504 18.6705C63.6504 17.7689 63.8209 16.9792 64.1618 16.3011C64.5065 15.6231 64.9914 15.0966 65.6164 14.7216C66.2414 14.3466 66.98 14.1591 67.8323 14.1591C68.6845 14.1591 69.4232 14.3466 70.0482 14.7216C70.6732 15.0966 71.1561 15.6231 71.497 16.3011C71.8417 16.9792 72.0141 17.7689 72.0141 18.6705C72.0141 19.572 71.8417 20.3598 71.497 21.0341C71.1561 21.7083 70.6732 22.233 70.0482 22.608C69.4232 22.983 68.6845 23.1705 67.8323 23.1705ZM67.8436 21.5227C68.3057 21.5227 68.6921 21.3958 69.0027 21.142C69.3133 20.8845 69.5444 20.5398 69.6959 20.108C69.8512 19.6761 69.9289 19.1951 69.9289 18.6648C69.9289 18.1307 69.8512 17.6477 69.6959 17.2159C69.5444 16.7803 69.3133 16.4337 69.0027 16.1761C68.6921 15.9186 68.3057 15.7898 67.8436 15.7898C67.3701 15.7898 66.9762 15.9186 66.6618 16.1761C66.3512 16.4337 66.1182 16.7803 65.9629 17.2159C65.8114 17.6477 65.7357 18.1307 65.7357 18.6648C65.7357 19.1951 65.8114 19.6761 65.9629 20.108C66.1182 20.5398 66.3512 20.8845 66.6618 21.142C66.9762 21.3958 67.3701 21.5227 67.8436 21.5227ZM72.9871 25.5341V21.3068H73.6803C73.8659 21.1629 74.0212 20.9678 74.1462 20.7216C74.2712 20.4716 74.3735 20.178 74.453 19.8409C74.5363 19.5 74.6045 19.1193 74.6575 18.6989C74.7106 18.2746 74.7579 17.8182 74.7996 17.3295L75.0496 14.2727H81.3564V21.3068H82.7087V25.5341H80.72V23H75.0098V25.5341H72.9871ZM75.7939 21.3068H79.3905V15.9318H76.8337L76.6973 17.3295C76.6216 18.2538 76.5212 19.0455 76.3962 19.7045C76.2712 20.3636 76.0704 20.8977 75.7939 21.3068ZM84.2442 23V14.2727H91.6135V23H89.6306V15.9602H86.2101V23H84.2442ZM95.7115 20.2159L99.2058 14.2727H101.319V23H99.3308V17.0511L95.8479 23H93.7286V14.2727H95.7115V20.2159ZM107.239 23.1705C106.367 23.1705 105.619 22.9792 104.994 22.5966C104.373 22.214 103.894 21.6856 103.557 21.0114C103.223 20.3333 103.057 19.553 103.057 18.6705C103.057 17.7841 103.227 17.0019 103.568 16.3239C103.909 15.642 104.39 15.1117 105.011 14.733C105.636 14.3504 106.375 14.1591 107.227 14.1591C107.935 14.1591 108.562 14.2898 109.108 14.5511C109.657 14.8087 110.095 15.1742 110.42 15.6477C110.746 16.1174 110.932 16.6667 110.977 17.2955H109.011C108.932 16.875 108.742 16.5246 108.443 16.2443C108.148 15.9602 107.752 15.8182 107.256 15.8182C106.835 15.8182 106.466 15.9318 106.148 16.1591C105.829 16.3826 105.581 16.7045 105.403 17.125C105.229 17.5455 105.142 18.0492 105.142 18.6364C105.142 19.2311 105.229 19.7424 105.403 20.1705C105.578 20.5947 105.822 20.9223 106.136 21.1534C106.454 21.3807 106.828 21.4943 107.256 21.4943C107.559 21.4943 107.829 21.4375 108.068 21.3239C108.31 21.2064 108.513 21.0379 108.676 20.8182C108.839 20.5985 108.951 20.3314 109.011 20.017H110.977C110.928 20.6345 110.746 21.1818 110.432 21.6591C110.117 22.1326 109.689 22.5038 109.148 22.7727C108.606 23.0379 107.97 23.1705 107.239 23.1705ZM112.666 23V14.2727H114.723V17.7955H115.473L118.098 14.2727H120.575L117.342 18.5568L120.609 23H118.121L115.729 19.7102H114.723V23H112.666ZM124.287 23.1761C123.734 23.1761 123.236 23.0777 122.792 22.8807C122.353 22.6799 122.005 22.3845 121.747 21.9943C121.493 21.6042 121.366 21.1231 121.366 20.5511C121.366 20.0587 121.457 19.6515 121.639 19.3295C121.821 19.0076 122.069 18.75 122.383 18.5568C122.698 18.3636 123.052 18.2178 123.446 18.1193C123.844 18.017 124.255 17.9432 124.679 17.8977C125.19 17.8447 125.605 17.7973 125.923 17.7557C126.241 17.7102 126.472 17.642 126.616 17.5511C126.764 17.4564 126.838 17.3106 126.838 17.1136V17.0795C126.838 16.6515 126.711 16.3201 126.457 16.0852C126.203 15.8504 125.838 15.733 125.361 15.733C124.857 15.733 124.457 15.8428 124.162 16.0625C123.87 16.2822 123.673 16.5417 123.571 16.8409L121.65 16.5682C121.802 16.0379 122.052 15.5947 122.4 15.2386C122.749 14.8788 123.175 14.6098 123.679 14.4318C124.183 14.25 124.739 14.1591 125.349 14.1591C125.77 14.1591 126.188 14.2083 126.605 14.3068C127.022 14.4053 127.402 14.5682 127.747 14.7955C128.092 15.0189 128.368 15.3239 128.577 15.7102C128.789 16.0966 128.895 16.5795 128.895 17.1591V23H126.917V21.8011H126.849C126.724 22.0436 126.548 22.2708 126.321 22.483C126.097 22.6913 125.815 22.8598 125.474 22.9886C125.137 23.1136 124.741 23.1761 124.287 23.1761ZM124.821 21.6648C125.234 21.6648 125.592 21.5833 125.895 21.4205C126.198 21.2538 126.431 21.0341 126.594 20.7614C126.76 20.4886 126.844 20.1913 126.844 19.8693V18.8409C126.779 18.8939 126.669 18.9432 126.514 18.9886C126.363 19.0341 126.192 19.0739 126.003 19.108C125.813 19.142 125.626 19.1723 125.44 19.1989C125.255 19.2254 125.094 19.2481 124.957 19.267C124.65 19.3087 124.376 19.3769 124.133 19.4716C123.891 19.5663 123.7 19.6989 123.56 19.8693C123.419 20.036 123.349 20.2519 123.349 20.517C123.349 20.8958 123.488 21.1818 123.764 21.375C124.041 21.5682 124.393 21.6648 124.821 21.6648ZM132.645 14.2727L134.406 17.4943L136.196 14.2727H138.372L135.741 18.6364L138.417 23H136.253L134.406 19.858L132.577 23H130.395L133.054 18.6364L130.463 14.2727H132.645Z" fill="#855BD9"/>
</svg>
