<svg width="126" height="126" viewBox="0 0 126 126" fill="none" xmlns="http://www.w3.org/2000/svg">
<mask id="mask0_961_857" style="mask-type:alpha" maskUnits="userSpaceOnUse" x="0" y="0" width="126" height="126">
<circle cx="63" cy="63" r="61.5" fill="#DDE3EB" stroke="white" stroke-width="3"/>
</mask>
<g mask="url(#mask0_961_857)">
<circle cx="63" cy="63" r="61.5" fill="#D2C1F4" stroke="white" stroke-width="3"/>
<path fill-rule="evenodd" clip-rule="evenodd" d="M40.2343 31.0866C40.12 31.1596 39.8317 31.2202 39.5933 31.2212C38.7819 31.225 37.8956 31.6417 36.9774 32.4507C36.9012 32.5178 36.6517 32.8967 36.423 33.2925C36.1944 33.6882 35.9037 34.1222 35.7772 34.2571C35.6504 34.392 35.4758 34.8438 35.3885 35.2609C35.3011 35.6783 35.1397 36.094 35.0295 36.1848C34.9193 36.2757 34.8282 36.4818 34.8268 36.6429C34.8234 37.1064 34.349 39.2472 34.1827 39.5511C34.0999 39.7025 34.0036 40.3322 33.9693 40.9503C33.9315 41.6227 33.822 42.2036 33.6966 42.3956C33.5542 42.6135 33.4579 43.2601 33.3969 44.4022C33.3477 45.3289 33.1856 46.5678 33.0369 47.1552C32.7168 48.4206 32.4732 52.6616 32.4732 56.9666C32.4732 59.9911 32.4167 60.2736 31.4417 62.1305C31.3239 62.3549 31.2273 62.6959 31.2266 62.8879C31.2262 63.0803 31.0987 63.4829 30.9428 63.7827C30.7872 64.0827 30.597 64.8181 30.5201 65.4173C30.2848 67.2463 29.787 67.652 28.5476 67.0243C28.2618 66.8798 27.7195 66.7194 27.3429 66.6678C26.9659 66.6162 26.5127 66.461 26.3357 66.3227C26.1586 66.1847 25.7747 66.0267 25.4827 65.9723C25.1902 65.918 24.8268 65.7497 24.6743 65.5983C24.4567 65.3822 24.1983 65.3202 23.4651 65.3075C21.1541 65.2683 21.1063 67.8021 23.4069 68.3774C23.7319 68.4586 24.0874 68.6138 24.1965 68.7222C24.3057 68.8306 24.6379 68.9624 24.9349 69.0151C25.2315 69.0677 25.6926 69.2247 25.9594 69.3644C26.2262 69.5038 26.8138 69.682 27.2653 69.7601C27.7168 69.8382 28.2292 69.9955 28.4038 70.1091C28.5784 70.223 28.8525 70.3159 29.0126 70.3159C29.7384 70.3159 29.84 70.5089 29.84 71.8868C29.84 73.6529 30.1033 73.5462 26.0582 73.4178C20.5374 73.243 20 73.3631 20 74.7737C20 75.8308 20.4553 76.1106 22.2868 76.1798C22.9728 76.2056 23.8771 76.2951 24.2963 76.3783C25.0631 76.5305 28.1793 76.4836 29.4595 76.3009C31.0034 76.0807 30.5308 77.7879 28.9045 78.3065C28.6186 78.3973 28.2871 78.5563 28.1679 78.6596C28.0487 78.7625 27.7368 78.919 27.4749 79.0071C27.213 79.0956 26.8391 79.2779 26.6441 79.4128C26.4486 79.5474 26.1212 79.6995 25.9165 79.7508C25.7113 79.8017 25.5436 79.8919 25.5436 79.9507C25.5436 80.0096 25.3098 80.1661 25.0239 80.2986C24.4793 80.5512 24.4408 80.5798 23.506 81.4225C21.8155 82.9463 23.3886 85.0293 25.2585 83.7423C25.5378 83.5499 25.826 83.3927 25.8988 83.3927C25.9719 83.3927 26.1091 83.2688 26.2044 83.1174C26.2997 82.9659 26.4622 82.8421 26.5654 82.8421C26.669 82.8421 26.915 82.7161 27.1121 82.5619C27.3096 82.4078 27.6766 82.212 27.9278 82.127C28.1793 82.0416 28.5313 81.8599 28.7108 81.7223C28.8899 81.585 29.2444 81.4339 29.4983 81.3867C29.7527 81.3393 30.0676 81.183 30.1989 81.0388C30.7318 80.4542 31.6261 80.9883 31.95 82.085C32.0394 82.3878 32.1891 82.6824 32.2826 82.7398C32.3758 82.7973 32.5262 83.0761 32.6166 83.3593C32.7071 83.6425 32.8581 83.9364 32.9524 84.0121C33.0466 84.0878 33.2282 84.351 33.3564 84.5971C33.4842 84.8431 33.6457 85.0445 33.7146 85.0445C33.7839 85.0445 33.8782 85.1628 33.9242 85.307C33.9707 85.4516 34.1921 85.7768 34.4166 86.0297C34.6411 86.283 34.8258 86.5294 34.8272 86.5782C34.8306 86.7166 36.3059 88.1478 36.7286 88.4227C36.9379 88.5587 37.1728 88.7238 37.2511 88.7892C37.8093 89.2569 40.2104 90.7057 41.1005 91.1124C41.4626 91.2776 41.7588 91.4669 41.7588 91.5322C41.7588 91.598 41.8679 91.652 42.0013 91.6524C42.1347 91.6524 42.6181 91.8382 43.0754 92.0646C43.5328 92.291 44.039 92.4769 44.2001 92.4769C44.3612 92.4772 44.6508 92.6008 44.8438 92.7515C45.0528 92.9146 45.5763 93.0788 46.1417 93.1586C46.7124 93.2388 47.1528 93.3775 47.248 93.5068C47.3655 93.6665 47.8156 93.7522 48.9905 93.8393C49.9693 93.9119 50.7409 94.0423 51.0098 94.1803C51.3337 94.3469 52.149 94.4405 54.1897 94.5458C55.6993 94.6235 57.4646 94.7588 58.1125 94.8462C59.637 95.0513 66.2894 95.0513 67.8139 94.8462C68.4618 94.7588 70.2271 94.6235 71.7367 94.5458C73.7775 94.4405 74.5928 94.3469 74.9167 94.1803C75.1856 94.0423 75.9572 93.9119 76.936 93.8393C78.1109 93.7522 78.561 93.6665 78.6784 93.5068C78.7737 93.3775 79.2141 93.2388 79.7847 93.1586C80.3502 93.0788 80.8737 92.9146 81.0826 92.7515C81.2756 92.6008 81.5653 92.4772 81.7264 92.4769C81.8875 92.4769 82.3937 92.291 82.851 92.0646C83.3084 91.8382 83.7917 91.6524 83.9251 91.6524C84.0585 91.652 84.1677 91.598 84.1677 91.5322C84.1677 91.4669 84.4639 91.2776 84.826 91.1124C85.7161 90.7057 88.1172 89.2569 88.6753 88.7892C88.7536 88.7238 88.9885 88.5587 89.1978 88.4227C89.6205 88.1478 91.0958 86.7166 91.0993 86.5782C91.1007 86.5294 91.2854 86.283 91.5099 86.0297C91.7344 85.7768 91.9558 85.4516 92.0022 85.307C92.0483 85.1628 92.1425 85.0445 92.2118 85.0445C92.2808 85.0445 92.4422 84.8431 92.5701 84.5971C92.6983 84.351 92.8798 84.0878 92.9741 84.0121C93.0683 83.9364 93.2194 83.6425 93.3098 83.3593C93.4003 83.0761 93.5513 82.7973 93.6456 82.7398C93.7401 82.6824 93.8763 82.4253 93.948 82.1683C94.1324 81.5099 94.4626 81.3331 94.9442 81.6342C95.1534 81.7646 95.5893 81.9948 95.9133 82.1455C96.2372 82.2959 96.5023 82.4835 96.5023 82.5619C96.5023 82.6404 96.5872 82.7044 96.6907 82.7044C96.7943 82.7044 97.0979 82.8517 97.365 83.0317C97.6321 83.2116 98.0722 83.4315 98.3435 83.5203C98.6144 83.6095 98.9058 83.7657 98.9914 83.8675C99.3486 84.2953 100.876 84.5548 101.544 84.3011C103.166 83.6858 102.289 81.7911 100.04 81.0536C99.7605 80.9621 99.4983 80.8007 99.4574 80.6947C99.4165 80.5887 99.2758 80.502 99.1445 80.502C98.9273 80.502 98.4443 80.2274 97.049 79.3113C96.7784 79.1334 96.4936 78.9879 96.4163 78.9879C96.2646 78.9879 95.3935 78.0611 95.3935 77.8997C95.3935 77.4961 95.7996 77.3471 97.1259 77.2638C97.8882 77.216 99.0108 77.0611 99.6206 76.9197C100.23 76.7786 101.228 76.6216 101.838 76.5711C104.291 76.3677 105.661 75.0899 104.681 73.9213C104.153 73.2926 101.607 73.2509 100.04 73.8456C99.4096 74.0851 96.5917 74.2995 96.2885 74.1312C96.1378 74.0472 96.0865 73.7396 96.0865 72.9182C96.0865 71.5922 96.3439 71.2237 97.3764 71.0699C97.7239 71.0179 98.0382 70.8978 98.0749 70.8028C98.1116 70.7075 98.4432 70.5557 98.8119 70.4652C99.1805 70.3744 99.7314 70.1858 100.036 70.0457C100.341 69.906 100.96 69.7488 101.413 69.6965C101.864 69.6445 102.363 69.5216 102.521 69.4236C102.679 69.3258 103.12 69.1741 103.501 69.0867C105.174 68.7026 105.275 66.6293 103.633 66.3846C103.275 66.3313 102.662 66.3543 102.271 66.4355C101.881 66.5167 101.289 66.6245 100.956 66.675C100.623 66.7253 100.093 66.8788 99.7779 67.0157C99.4626 67.1527 98.9127 67.3072 98.5558 67.3592C98.199 67.4111 97.8767 67.5316 97.84 67.6265C97.7413 67.8826 96.5518 68.1493 96.2424 67.9851C95.9275 67.8175 95.5723 66.7132 95.3987 65.3605C95.3256 64.7927 95.1389 64.0827 94.9833 63.7827C94.8277 63.4829 94.7002 63.0803 94.6999 62.8879C94.6992 62.6959 94.6025 62.3549 94.4847 62.1305C93.5097 60.2736 93.4533 59.9911 93.4533 56.9666C93.4533 52.6616 93.2097 48.4206 92.8895 47.1552C92.7409 46.5678 92.5788 45.3289 92.5296 44.4022C92.4686 43.2601 92.3723 42.6135 92.2299 42.3956C92.1044 42.2036 91.9949 41.6227 91.9572 40.9503C91.9229 40.3322 91.8266 39.7025 91.7437 39.5511C91.5774 39.2472 91.1031 37.1064 91.0996 36.6429C91.0983 36.4818 91.0071 36.2757 90.897 36.1848C90.7868 36.094 90.6253 35.6783 90.538 35.2609C90.4507 34.8438 90.2761 34.392 90.1492 34.2571C90.0228 34.1222 89.7321 33.6882 89.5034 33.2925C89.2747 32.8967 89.0253 32.5178 88.9491 32.4507C88.0389 31.6486 87.1408 31.2232 86.3584 31.2232C86.1346 31.2232 85.846 31.1685 85.7178 31.1018C85.2372 30.8516 82.621 31.4318 81.9661 31.9335C81.7842 32.0729 81.5725 32.1868 81.4956 32.1868C81.3401 32.1868 81.2919 32.2302 79.5249 33.9546C78.1739 35.2729 77.3486 36.2007 76.9547 36.8438C76.6553 37.3328 76.3937 37.6529 75.601 38.4998C75.2722 38.8508 74.9122 39.3085 74.8006 39.5167C74.6891 39.7249 74.5494 39.8952 74.4905 39.8952C74.4316 39.8952 74.3031 40.1161 74.2047 40.3859C74.1063 40.6557 73.941 40.909 73.8371 40.9486C73.7331 40.9885 73.5779 41.2321 73.492 41.4902C73.4064 41.7487 73.2803 41.96 73.2117 41.96C73.1434 41.96 72.983 42.1613 72.8548 42.4073C72.727 42.6534 72.3514 43.1857 72.0198 43.5901C71.6886 43.9944 71.4173 44.4105 71.4173 44.5144C71.4173 44.6844 71.1193 45.0519 70.3044 45.8878C70.1544 46.042 70.0314 46.2605 70.0314 46.3734C70.0314 47.1604 68.9687 47.4329 67.782 46.9498C67.263 46.7385 66.6712 46.7089 62.9632 46.7089C59.2552 46.7089 58.6634 46.7385 58.1444 46.9498C56.9577 47.4329 55.8951 47.1604 55.8951 46.3734C55.8951 46.2605 55.7721 46.042 55.6221 45.8878C54.8071 45.0519 54.5092 44.6844 54.5092 44.5144C54.5092 44.4105 54.2379 43.9944 53.9066 43.5901C53.5751 43.1857 53.1995 42.6534 53.0716 42.4073C52.9434 42.1613 52.783 41.96 52.7148 41.96C52.6462 41.96 52.52 41.7487 52.4345 41.4902C52.3485 41.2321 52.1933 40.9885 52.0894 40.9486C51.9854 40.909 51.8202 40.6557 51.7218 40.3859C51.6234 40.1161 51.4948 39.8952 51.4359 39.8952C51.377 39.8952 51.2374 39.7249 51.1258 39.5167C51.0143 39.3085 50.6543 38.8508 50.3255 38.4998C49.5327 37.6529 49.2711 37.3328 48.9718 36.8438C48.5778 36.2007 47.7525 35.2729 46.4016 33.9546C44.6346 32.2302 44.5864 32.1868 44.4308 32.1868C44.3539 32.1868 44.1422 32.0722 43.9603 31.9318C43.5567 31.6204 42.4833 31.2756 41.5509 31.1575C41.1698 31.1093 40.7644 31.044 40.6501 31.012C40.5357 30.9803 40.3486 31.0137 40.2343 31.0866ZM77.6792 68.5423C78.1064 68.7649 78.9272 69.8892 79.0467 70.415C79.6285 72.9777 76.6952 73.7107 75.1145 71.3975C73.8669 69.5712 75.7119 67.5168 77.6792 68.5423ZM49.6093 68.8953C50.4145 69.5051 50.6061 70.4425 50.0964 71.2794C49.8158 71.7406 48.7064 72.7936 48.5012 72.7936C48.4115 72.7936 48.1049 72.9175 47.8208 73.0689C46.8714 73.5741 45.7118 73.0885 45.3635 72.0403C44.6699 69.9535 47.8738 67.5804 49.6093 68.8953ZM55.462 79.4008C55.5923 79.4008 56.2859 79.9645 57.0031 80.6538C58.8263 82.405 59.0366 82.4615 59.7517 81.3895C60.2624 80.6235 60.5916 80.3705 61.2797 80.2143C61.7956 80.0973 62.8246 80.2776 62.8246 80.4851C62.8246 80.5457 62.9934 80.672 63.1999 80.7653C63.406 80.8585 63.659 81.0543 63.7619 81.2002C63.8648 81.3461 64.0581 81.4656 64.1915 81.4656C64.3249 81.4656 64.6454 81.6204 64.9035 81.8097C65.7503 82.4301 66.7024 82.054 67.0011 80.9807C67.3677 79.6613 69.2729 79.0966 70.276 80.0099C70.9274 80.6028 71.0424 82.2095 70.487 82.9556C70.3245 83.1741 70.1218 83.6095 70.0369 83.9233C69.9517 84.2371 69.8235 84.4939 69.7518 84.4939C69.68 84.4939 69.4929 84.7437 69.336 85.0493C69.1472 85.4168 68.8769 85.6842 68.5363 85.8408C68.2533 85.9705 67.9393 86.1543 67.8385 86.2489C67.4979 86.5693 66.023 86.5008 65.3317 86.1329C65.0605 85.9887 64.6035 85.8704 64.3166 85.8704C63.9777 85.8704 63.6964 85.7726 63.5145 85.592C63.0499 85.1305 62.1386 85.0844 61.6882 85.4997C61.0157 86.1192 57.2304 86.1398 56.7786 85.5259C56.6892 85.4044 56.4072 85.2468 56.1518 85.1756C55.6162 85.0262 54.2299 83.7657 53.539 82.8008C52.3475 81.1355 53.336 78.8622 55.0403 79.3482C55.1418 79.3771 55.3314 79.4008 55.462 79.4008Z" fill="white"/>
</g>
</svg>
